<?xml version="1.0" standalone="no"?>
<!DOCTYPE svg PUBLIC "-//W3C//DTD SVG 20010904//EN"
 "http://www.w3.org/TR/2001/REC-SVG-20010904/DTD/svg10.dtd">
<svg version="1.0" xmlns="http://www.w3.org/2000/svg"
 width="299.000000pt" height="499.000000pt" viewBox="0 0 299.000000 499.000000"
 preserveAspectRatio="xMidYMid meet">

<g transform="translate(0.000000,499.000000) scale(0.100000,-0.100000)"
fill="#000000" stroke="none">
<path d="M10 2511 c0 -1966 3 -2470 13 -2474 10 -4 10 -6 0 -6 -7 -1 -13 -5
-13 -11 0 -7 502 -10 1485 -10 l1485 0 0 2485 0 2485 -1485 0 -1485 0 0 -2469z
m1160 2274 c0 -11 19 -15 88 -18 48 -1 -7 -3 -123 -3 -167 0 -187 1 -95 6 63
3 111 7 107 8 -11 3 1 22 14 22 5 0 9 -7 9 -15z m-292 -22 c-26 -2 -71 -2
-100 0 -29 2 -8 3 47 3 55 0 79 -1 53 -3z m728 -2 c-3 -5 -15 -7 -26 -4 -28 7
-25 13 6 13 14 0 23 -4 20 -9z m154 5 c0 -2 -7 -7 -16 -10 -8 -3 -12 -2 -9 4
6 10 25 14 25 6z m53 -13 c-7 -2 -19 -2 -25 0 -7 3 -2 5 12 5 14 0 19 -2 13
-5z m465 0 c-32 -2 -86 -2 -120 0 -35 2 -9 3 57 3 66 0 94 -1 63 -3z m305 -5
c-15 -7 -30 -7 -50 0 -26 10 -24 10 22 11 42 0 46 -2 28 -11z m97 -34 c0 -8
-7 -14 -15 -14 -15 0 -21 21 -9 33 10 9 24 -2 24 -19z m-1970 -104 c0 -5 -8
-10 -17 -10 -15 0 -16 2 -3 10 19 12 20 12 20 0z m793 -177 c-7 -2 -19 -2 -25
0 -7 3 -2 5 12 5 14 0 19 -2 13 -5z m967 -33 c0 -5 -4 -10 -10 -10 -5 0 -10 5
-10 10 0 6 5 10 10 10 6 0 10 -4 10 -10z m-743 -66 c-3 -3 -12 -4 -19 -1 -8 3
-5 6 6 6 11 1 17 -2 13 -5z m110 -10 c-3 -3 -12 -4 -19 -1 -8 3 -5 6 6 6 11 1
17 -2 13 -5z m-1327 -214 c11 -7 7 -10 -17 -10 -18 0 -33 5 -33 10 0 13 30 13
50 0z m880 1 c0 -11 -40 -22 -54 -14 -5 4 -1 10 10 14 27 11 44 11 44 0z
m-522 -8 c-10 -2 -26 -2 -35 0 -10 3 -2 5 17 5 19 0 27 -2 18 -5z m85 0 c-7
-2 -19 -2 -25 0 -7 3 -2 5 12 5 14 0 19 -2 13 -5z m352 -3 c-3 -5 -12 -7 -20
-3 -21 7 -19 13 6 13 11 0 18 -4 14 -10z m881 -2 c4 -5 -16 -8 -45 -8 -29 0
-50 4 -47 8 6 10 82 10 92 0z m424 2 c0 -6 -28 -9 -67 -8 l-68 1 60 7 c33 4
63 7 68 8 4 1 7 -2 7 -8z m-958 -126 c10 -38 30 -110 43 -159 31 -114 31 -117
-2 -113 -24 3 -30 10 -39 48 -10 44 -12 45 -49 45 -38 0 -39 -1 -50 -45 -7
-29 -17 -46 -28 -48 -9 -2 -17 0 -17 5 0 8 85 304 95 331 11 29 29 3 47 -64z
m-232 -84 l0 -151 35 7 c33 6 35 5 35 -20 0 -25 -2 -26 -65 -26 l-65 0 0 170
0 170 30 0 30 0 0 -150z m756 -201 c3 -6 -6 -24 -22 -40 -23 -24 -25 -29 -10
-29 28 0 83 -61 95 -105 34 -122 -31 -255 -124 -255 -36 0 -79 24 -100 57 -23
35 -32 156 -16 206 12 36 71 97 94 97 7 0 22 18 35 40 23 41 36 48 48 29z
m-1020 -85 c54 -33 80 -160 51 -242 -54 -146 -219 -123 -243 35 -23 156 86
274 192 207z m-428 -12 c3 -20 0 -23 -25 -22 -48 3 -50 1 -51 -44 -1 -45 -1
-45 36 -48 30 -2 38 -7 40 -26 3 -21 0 -23 -35 -20 l-38 3 -3 -57 -3 -58 41 0
c36 0 40 -3 40 -24 0 -23 -2 -24 -62 -21 l-63 4 -3 171 -2 171 62 -3 c57 -3
63 -5 66 -26z m91 -9 c5 -21 17 -73 27 -116 10 -42 21 -74 25 -70 3 5 17 51
29 103 22 93 34 120 51 120 15 0 11 -23 -31 -167 -22 -76 -40 -145 -40 -154 0
-19 -22 -31 -36 -21 -8 6 -94 315 -94 337 0 3 13 5 30 5 25 0 30 -5 39 -37z
m491 -120 l0 -154 35 7 c33 6 35 5 35 -20 0 -25 -2 -26 -65 -26 l-65 0 0 168
c0 93 2 171 5 174 3 3 17 6 30 6 l25 0 0 -155z m160 27 c0 -134 9 -175 41
-185 56 -18 81 46 78 198 -1 91 0 102 16 102 16 0 17 -12 16 -125 -2 -146 -15
-184 -69 -207 -44 -18 -97 -3 -116 36 -15 28 -33 268 -23 295 4 9 18 16 32 16
l25 0 0 -130z m368 114 c12 -8 22 -21 22 -29 0 -23 -20 -28 -39 -11 -42 38
-84 10 -102 -70 -29 -127 34 -231 108 -179 29 20 38 3 14 -26 -16 -20 -28 -24
-67 -23 -40 1 -52 6 -75 32 -48 54 -60 131 -34 218 14 48 43 85 75 97 30 11
76 7 98 -9z m112 -164 l0 -170 -29 0 -29 0 2 170 1 170 28 0 27 0 0 -170z
m423 79 c32 -50 61 -97 64 -105 14 -37 20 -5 15 91 -4 103 -4 105 17 105 22 0
22 -1 19 -167 -3 -151 -5 -168 -21 -171 -11 -2 -23 8 -35 28 -9 17 -39 68 -67
113 l-50 82 -3 -112 c-2 -107 -4 -113 -23 -113 -15 0 -19 5 -15 16 3 9 6 85 6
170 0 192 7 197 93 63z m-1101 -355 c78 -70 60 -267 -29 -309 -21 -10 -53 -15
-86 -13 l-52 3 -3 160 c-1 87 0 166 3 173 8 22 139 11 167 -14z m664 -140 c24
-87 43 -165 44 -172 0 -9 -10 -12 -27 -10 -23 3 -29 10 -41 51 -13 47 -14 48
-50 45 -34 -3 -37 -6 -47 -48 -7 -29 -17 -46 -28 -48 -9 -2 -17 0 -17 4 0 11
91 327 97 337 14 24 31 -15 69 -159z m-446 135 c0 -19 -4 -21 -35 -16 l-35 6
0 -56 0 -55 35 6 c33 6 35 5 35 -19 0 -22 -4 -25 -35 -25 l-35 0 0 -61 0 -61
35 6 c32 6 35 5 35 -17 0 -24 -3 -25 -65 -25 l-65 -1 0 170 0 169 65 0 c60 0
65 -2 65 -21z m190 -130 l0 -152 34 6 c28 4 35 2 39 -13 7 -27 1 -30 -70 -30
l-63 0 0 170 0 170 30 0 30 0 0 -151z m674 -208 c4 -5 -6 -23 -20 -40 -14 -17
-21 -31 -15 -31 8 0 11 -50 9 -167 l-3 -168 -27 -3 -28 -3 0 166 c0 102 4 170
11 178 5 7 19 27 29 45 20 32 34 40 44 23z m-858 -72 c59 -22 92 -158 60 -243
-21 -55 -76 -106 -114 -106 -15 0 -41 9 -59 20 -106 64 -92 287 21 336 30 12
44 11 92 -7z m-822 -5 c9 -24 -3 -36 -30 -31 l-23 4 -3 -151 -3 -151 -25 0
-25 0 -3 148 -3 147 -29 0 c-25 0 -30 4 -30 25 0 25 1 25 84 25 67 0 85 -3 90
-16z m154 -11 c3 -20 -1 -23 -32 -23 -36 0 -36 0 -36 -44 0 -43 1 -45 33 -48
24 -2 33 -8 35 -25 3 -20 -1 -23 -35 -23 l-38 0 1 -52 2 -53 37 -3 c31 -3 36
-7 33 -25 -3 -20 -9 -22 -63 -22 l-60 0 -3 173 -2 173 62 -3 c57 -3 63 -5 66
-25z m223 6 c11 -17 11 -21 -1 -39 -8 -12 -12 -11 -30 8 -27 29 -36 28 -70 -6
-36 -36 -47 -103 -31 -178 10 -44 18 -57 42 -69 26 -14 32 -14 59 0 29 15 30
15 30 -5 0 -26 -53 -50 -92 -43 -34 6 -76 47 -94 90 -37 87 1 224 71 254 28
12 106 4 116 -12z m881 1 c39 -30 58 -80 58 -154 0 -81 -24 -134 -73 -165 -60
-37 -117 -20 -159 46 -19 31 -23 52 -23 114 0 66 4 81 28 118 15 23 38 46 50
51 39 15 93 11 119 -10z m279 4 c20 -10 29 -20 25 -30 -3 -9 -6 -20 -6 -26 0
-5 -12 0 -26 11 -81 64 -152 -37 -124 -175 13 -63 43 -90 86 -80 25 7 26 10
22 64 -3 56 -2 57 25 60 l27 3 0 -71 0 -71 -35 -15 c-48 -20 -77 -18 -115 9
-60 40 -74 69 -74 150 0 77 14 116 56 153 41 38 90 44 139 18z m-1021 -103
l65 -103 3 106 c2 86 5 106 18 106 12 0 14 -25 12 -167 -3 -139 -6 -168 -17
-168 -8 0 -43 47 -78 105 -35 58 -67 106 -73 108 -6 2 -9 -36 -8 -105 2 -90 0
-108 -12 -108 -13 0 -15 27 -17 168 -2 168 -2 168 20 165 15 -2 41 -33 87
-107z m462 -38 l3 -147 35 0 c28 -1 35 -5 35 -21 0 -18 -7 -20 -64 -20 l-65 0
0 167 -1 168 27 0 27 0 3 -147z m847 60 c13 -49 31 -118 42 -154 26 -91 25
-101 -8 -97 -23 3 -29 10 -41 51 -12 44 -15 47 -47 47 -32 0 -35 -3 -47 -47
-9 -32 -20 -49 -32 -51 -23 -5 -23 -9 34 191 53 182 66 190 99 60z m-1799
-443 c-18 -12 -187 -12 -215 0 -13 5 26 9 105 9 84 1 120 -2 110 -9z m545 0
c15 -7 9 -9 -25 -9 -33 -1 -41 2 -30 9 18 12 28 12 55 0z m75 0 c0 -5 -4 -10
-10 -10 -5 0 -10 5 -10 10 0 6 5 10 10 10 6 0 10 -4 10 -10z m-192 -7 c-10 -2
-28 -2 -40 0 -13 2 -5 4 17 4 22 1 32 -1 23 -4z m239 1 c-3 -3 -12 -4 -19 -1
-8 3 -5 6 6 6 11 1 17 -2 13 -5z m920 0 c-3 -3 -12 -4 -19 -1 -8 3 -5 6 6 6
11 1 17 -2 13 -5z m353 -4 c0 -5 -2 -10 -4 -10 -3 0 -8 5 -11 10 -3 6 -1 10 4
10 6 0 11 -4 11 -10z m-2033 -256 c-3 -3 -12 -4 -19 -1 -8 3 -5 6 6 6 11 1 17
-2 13 -5z m136 -1 c-7 -2 -21 -2 -30 0 -10 3 -4 5 12 5 17 0 24 -2 18 -5z
m577 -3 c0 -5 -4 -10 -10 -10 -5 0 -10 5 -10 10 0 6 5 10 10 10 6 0 10 -4 10
-10z m120 0 c0 -5 -4 -10 -10 -10 -5 0 -10 5 -10 10 0 6 5 10 10 10 6 0 10 -4
10 -10z m30 0 c0 -5 -4 -10 -10 -10 -5 0 -10 5 -10 10 0 6 5 10 10 10 6 0 10
-4 10 -10z m70 0 c0 -5 -7 -10 -15 -10 -8 0 -15 5 -15 10 0 6 7 10 15 10 8 0
15 -4 15 -10z m-380 -190 c0 -5 -4 -10 -9 -10 -6 0 -13 5 -16 10 -3 6 1 10 9
10 9 0 16 -4 16 -10z m50 0 c0 -5 -5 -10 -11 -10 -5 0 -7 5 -4 10 3 6 8 10 11
10 2 0 4 -4 4 -10z m1230 6 c0 -2 -7 -7 -16 -10 -8 -3 -12 -2 -9 4 6 10 25 14
25 6z m-753 -12 c-3 -3 -12 -4 -19 -1 -8 3 -5 6 6 6 11 1 17 -2 13 -5z m626
-1 c-7 -2 -21 -2 -30 0 -10 3 -4 5 12 5 17 0 24 -2 18 -5z m84 1 c-3 -3 -12
-4 -19 -1 -8 3 -5 6 6 6 11 1 17 -2 13 -5z m-1192 -184 c3 -5 1 -10 -4 -10 -6
0 -11 5 -11 10 0 6 2 10 4 10 3 0 8 -4 11 -10z m302 -6 c-3 -3 -12 -4 -19 -1
-8 3 -5 6 6 6 11 1 17 -2 13 -5z m120 0 c-3 -3 -12 -4 -19 -1 -8 3 -5 6 6 6
11 1 17 -2 13 -5z m110 0 c-3 -3 -12 -4 -19 -1 -8 3 -5 6 6 6 11 1 17 -2 13
-5z m231 -1 c-10 -2 -26 -2 -35 0 -10 3 -2 5 17 5 19 0 27 -2 18 -5z m517 -3
c3 -5 2 -10 -4 -10 -5 0 -13 5 -16 10 -3 6 -2 10 4 10 5 0 13 -4 16 -10z m47
-2 c-9 -9 -15 -9 -24 0 -9 9 -7 12 12 12 19 0 21 -3 12 -12z m-925 -84 c-3 -3
-12 -4 -19 -1 -8 3 -5 6 6 6 11 1 17 -2 13 -5z m-302 -94 c-3 -5 -16 -10 -28
-9 -20 1 -20 2 3 9 14 4 26 8 28 9 2 1 0 -3 -3 -9z m402 -6 c-3 -3 -12 -4 -19
-1 -8 3 -5 6 6 6 11 1 17 -2 13 -5z m166 -1 c-7 -2 -19 -2 -25 0 -7 3 -2 5 12
5 14 0 19 -2 13 -5z m244 1 c-3 -3 -12 -4 -19 -1 -8 3 -5 6 6 6 11 1 17 -2 13
-5z m-707 -88 c0 -3 -4 -8 -10 -11 -5 -3 -10 -1 -10 4 0 6 5 11 10 11 6 0 10
-2 10 -4z m1057 -52 c-3 -3 -12 -4 -19 -1 -8 3 -5 6 6 6 11 1 17 -2 13 -5z
m-1582 -44 c3 -5 1 -10 -4 -10 -6 0 -11 5 -11 10 0 6 2 10 4 10 3 0 8 -4 11
-10z m482 -6 c-3 -3 -12 -4 -19 -1 -8 3 -5 6 6 6 11 1 17 -2 13 -5z m156 -1
c-7 -2 -19 -2 -25 0 -7 3 -2 5 12 5 14 0 19 -2 13 -5z m930 -10 c-7 -2 -21 -2
-30 0 -10 3 -4 5 12 5 17 0 24 -2 18 -5z m60 0 c-7 -2 -19 -2 -25 0 -7 3 -2 5
12 5 14 0 19 -2 13 -5z m-943 -83 c0 -5 -4 -10 -10 -10 -5 0 -10 5 -10 10 0 6
5 10 10 10 6 0 10 -4 10 -10z m-643 -46 c-3 -3 -12 -4 -19 -1 -8 3 -5 6 6 6
11 1 17 -2 13 -5z m626 -51 c-7 -2 -21 -2 -30 0 -10 3 -4 5 12 5 17 0 24 -2
18 -5z m860 -10 c-7 -2 -21 -2 -30 0 -10 3 -4 5 12 5 17 0 24 -2 18 -5z
m-1673 -63 c0 -11 -6 -20 -14 -20 -21 0 -31 21 -15 31 22 14 29 11 29 -11z
m1017 -126 c-3 -3 -12 -4 -19 -1 -8 3 -5 6 6 6 11 1 17 -2 13 -5z m138 -184
c3 -5 1 -10 -4 -10 -6 0 -11 5 -11 10 0 6 2 10 4 10 3 0 8 -4 11 -10z m55 0
c0 -5 -4 -10 -9 -10 -6 0 -13 5 -16 10 -3 6 1 10 9 10 9 0 16 -4 16 -10z m40
0 c0 -5 -4 -10 -10 -10 -5 0 -10 5 -10 10 0 6 5 10 10 10 6 0 10 -4 10 -10z
m115 0 c3 -5 1 -10 -4 -10 -6 0 -11 5 -11 10 0 6 2 10 4 10 3 0 8 -4 11 -10z
m-271 -143 c-7 -18 22 -42 31 -27 5 8 11 8 21 -1 10 -8 14 -8 14 0 0 6 5 11
10 11 6 0 10 -22 10 -50 0 -51 -11 -64 -29 -32 -10 16 -10 16 -11 0 0 -10 -4
-18 -10 -18 -5 0 -10 5 -10 12 0 9 -3 9 -12 0 -17 -17 -39 -15 -54 6 -11 14
-13 14 -14 2 0 -12 -12 -16 -47 -17 -27 0 -54 4 -60 9 -9 7 -13 7 -13 -1 0
-15 -63 -14 -78 1 -17 17 -15 64 4 82 23 23 34 20 41 -14 7 -35 20 -40 25 -8
5 34 25 32 33 -4 8 -32 8 -33 12 -6 6 36 28 54 48 38 8 -6 19 -9 25 -5 5 3 10
1 10 -4 0 -19 16 -12 30 14 14 26 33 35 24 12z m-1180 -14 c10 -10 46 -11 46
-1 0 11 37 10 45 -2 3 -5 12 -7 20 -3 12 4 15 -3 15 -30 0 -22 6 -37 15 -41
12 -4 15 3 15 34 0 22 5 40 10 40 6 0 10 -5 10 -12 0 -6 9 -3 20 7 15 14 23
15 34 6 9 -7 17 -8 20 -2 7 11 95 11 102 0 2 -4 -3 -12 -12 -17 -14 -8 -14
-10 -1 -15 9 -3 19 4 26 20 13 28 44 28 49 0 3 -13 -2 -17 -15 -15 -12 2 -18
-3 -18 -17 0 -14 7 -20 22 -21 17 -1 23 6 28 32 6 32 35 50 35 22 0 -7 3 -31
7 -53 5 -35 4 -38 -9 -28 -8 7 -18 10 -21 6 -4 -3 -21 -8 -37 -10 -24 -2 -33
2 -42 22 -12 27 -23 31 -33 15 -3 -6 1 -13 9 -16 25 -9 19 -24 -9 -24 -23 0
-25 4 -25 46 0 27 -4 43 -10 39 -5 -3 -10 -21 -10 -40 0 -19 -4 -37 -10 -40
-6 -4 -10 10 -10 34 0 23 -5 41 -11 41 -6 0 -9 -7 -5 -15 8 -22 -14 -65 -35
-65 -9 0 -20 7 -23 16 -5 14 -7 14 -22 0 -18 -18 -50 -21 -60 -5 -4 8 -9 8
-17 0 -17 -17 -47 -13 -47 7 0 13 -2 14 -9 3 -5 -7 -13 -11 -19 -7 -6 3 -13 2
-17 -4 -9 -15 -42 -12 -48 4 -3 7 -3 32 0 55 4 30 10 41 23 41 9 0 20 -3 24
-7z m556 -10 c10 -17 10 -17 20 0 11 18 50 24 50 7 0 -5 -8 -14 -17 -19 -10
-6 -12 -11 -5 -11 14 0 17 -30 2 -30 -5 0 -10 -4 -10 -10 0 -5 7 -10 15 -10 8
0 15 -4 15 -10 0 -5 -11 -10 -25 -10 -17 0 -25 6 -25 17 0 15 -2 14 -20 -2
-30 -27 -50 -13 -50 38 0 24 3 47 7 50 12 12 32 7 43 -10z m146 0 c13 -13 19
-14 22 -5 6 19 42 15 42 -5 1 -17 1 -17 14 0 25 32 46 21 46 -24 0 -24 4 -38
10 -34 6 3 10 21 10 38 0 26 4 33 20 34 16 1 20 -4 20 -33 0 -22 6 -37 15 -40
21 -9 19 -24 -5 -24 -10 0 -24 8 -29 18 -10 16 -10 16 -11 -1 0 -13 -6 -17
-22 -15 -18 2 -24 11 -28 43 l-6 40 -8 -42 c-9 -52 -23 -55 -32 -8 -9 51 -24
53 -24 4 0 -38 -1 -41 -13 -25 -12 17 -14 17 -20 2 -4 -9 -16 -16 -27 -16 -17
0 -20 6 -20 48 0 65 13 78 46 45z m642 5 c13 -13 52 -19 52 -7 0 11 30 20 42
13 7 -5 4 -12 -8 -21 -16 -12 -17 -15 -4 -24 11 -8 12 -12 3 -16 -17 -6 -16
-23 1 -23 16 0 29 27 20 41 -3 6 -3 17 0 26 5 12 9 13 20 4 10 -8 16 -9 21 -1
9 14 95 13 95 -2 0 -9 3 -9 12 0 16 16 65 15 71 0 3 -10 9 -8 24 4 15 14 22
15 31 6 17 -17 15 -31 -3 -24 -18 7 -30 -16 -21 -39 9 -24 43 -1 51 35 11 52
30 39 41 -30 6 -37 5 -42 -9 -37 -9 3 -29 2 -45 -3 -22 -6 -34 -4 -46 8 -10
11 -16 12 -16 4 0 -7 -4 -12 -10 -12 -5 0 -10 9 -10 20 0 27 -30 26 -37 -1 -4
-14 -12 -19 -27 -17 -16 2 -21 10 -21 33 0 44 -19 46 -23 3 -2 -21 -8 -38 -13
-38 -6 0 -10 12 -9 28 3 41 1 52 -10 52 -5 0 -10 -18 -10 -40 0 -38 -13 -54
-23 -27 -4 9 -7 9 -14 0 -11 -15 -155 -14 -165 1 -11 16 -10 54 2 77 12 22 21
24 38 7z m-138 -168 c0 -14 -657 -14 -665 0 -4 7 108 10 329 10 217 0 336 -4
336 -10z m-1460 -238 c0 -10 -226 -10 -236 1 -4 4 47 7 114 7 67 0 122 -4 122
-8z m50 -3 c0 -5 -9 -9 -20 -9 -11 0 -20 4 -20 8 0 4 9 8 20 9 11 1 20 -2 20
-8z m75 1 c4 -6 -5 -10 -20 -10 -15 0 -24 4 -20 10 3 6 12 10 20 10 8 0 17 -4
20 -10z m73 -7 c-10 -2 -28 -2 -40 0 -13 2 -5 4 17 4 22 1 32 -1 23 -4z m240
0 c-10 -2 -28 -2 -40 0 -13 2 -5 4 17 4 22 1 32 -1 23 -4z"/>
<path d="M1591 3894 c-15 -53 -15 -54 15 -54 24 0 25 2 19 33 -13 58 -22 64
-34 21z"/>
<path d="M2084 3567 c-24 -21 -28 -32 -32 -104 -5 -95 8 -145 43 -161 21 -10
29 -8 50 11 54 48 56 224 2 262 -28 20 -31 19 -63 -8z"/>
<path d="M1051 3564 c-37 -47 -41 -188 -6 -240 18 -28 56 -32 79 -9 43 44 46
207 4 252 -28 30 -52 29 -77 -3z"/>
<path d="M1160 3015 l0 -135 28 0 c50 0 67 31 70 129 3 76 1 89 -18 114 -15
18 -31 27 -51 27 l-29 0 0 -135z"/>
<path d="M1851 3034 c-15 -53 -15 -54 15 -54 24 0 25 2 19 33 -13 58 -22 64
-34 21z"/>
<path d="M1407 2712 c-59 -64 -46 -252 18 -268 54 -13 90 56 83 162 -6 98 -59
153 -101 106z"/>
<path d="M1830 2710 c-26 -26 -35 -61 -35 -135 0 -99 32 -147 86 -130 30 10
49 65 49 145 0 74 -16 123 -45 134 -26 9 -34 7 -55 -14z"/>
<path d="M2437 2614 c-3 -11 -8 -29 -12 -41 -5 -20 -3 -23 20 -23 25 0 26 2
20 33 -9 41 -21 54 -28 31z"/>
<path d="M1597 423 c-11 -10 -8 -41 5 -49 8 -5 9 -2 5 9 -3 9 -2 19 3 22 6 4
10 10 10 16 0 10 -14 12 -23 2z"/>
<path d="M1720 400 c0 -34 5 -37 26 -16 18 19 18 32 -2 40 -23 9 -24 8 -24
-24z"/>
<path d="M1814 416 c-8 -21 3 -49 16 -41 5 3 10 15 10 25 0 25 -18 36 -26 16z"/>
<path d="M860 405 c0 -14 5 -25 10 -25 6 0 10 11 10 25 0 14 -4 25 -10 25 -5
0 -10 -11 -10 -25z"/>
<path d="M1180 405 c0 -14 5 -25 10 -25 6 0 10 11 10 25 0 14 -4 25 -10 25 -5
0 -10 -11 -10 -25z"/>
<path d="M1330 406 c0 -14 5 -26 10 -26 6 0 10 9 10 19 0 11 -4 23 -10 26 -6
4 -10 -5 -10 -19z"/>
<path d="M1974 415 c-3 -8 -4 -22 0 -30 5 -13 9 -13 26 -3 25 16 25 24 0 38
-16 9 -22 8 -26 -5z"/>
<path d="M2280 420 c0 -5 7 -10 16 -10 8 0 12 5 9 10 -3 6 -10 10 -16 10 -5 0
-9 -4 -9 -10z"/>
</g>
</svg>
